<?xml version="1.0" encoding="utf-8"?>
<!-- Generator: Adobe Illustrator 16.0.0, SVG Export Plug-In . SVG Version: 6.00 Build 0)  -->
<!DOCTYPE svg PUBLIC "-//W3C//DTD SVG 1.1//EN" "http://www.w3.org/Graphics/SVG/1.1/DTD/svg11.dtd">
<svg version="1.1" id="Layer_1" xmlns="http://www.w3.org/2000/svg" xmlns:xlink="http://www.w3.org/1999/xlink" x="0px" y="0px"
	 width="352.667px" height="266.667px" viewBox="0 0 352.667 266.667" enable-background="new 0 0 352.667 266.667"
	 xml:space="preserve">
<g id="Layer_1_1_">
	<g>
		<g>
			<path d="M127.591,80.71c2.055,4.453,7.455,7.192,12.312,8.399c3.709,0.922,5.013,3.148,2.541,5.321
				c-5.277,4.636-18.863,13.718-18.863,13.718l5.654,4.969l21.272-7.478l17.54,17.031l38.983-0.124c0,0-8.225-25.314-24.504-34.961
				c-10.181-6.033-18.077-6.94-18.077-6.94l-0.258-13.786c0,0-6.357-17.48-23.711-14.68
				C123.127,54.979,123.914,72.747,127.591,80.71z"/>
			<g display="none">
				<path display="inline" fill="#FFFFFF" d="M137.167,72.367l7.184,11.146l-3.254,6.45c0,0,0.299,0.149,0.723,0.412
					c0.438,0.271,0.738,0.545,0.738,0.545l3.647-6.523l11.158-2.562l-8.519-12.588L137.167,72.367z M139.784,73.022
					c1.521-0.365,8.848-2.34,8.848-2.34l6.857,9.866l-9.564,2.012L139.784,73.022z"/>
				<path display="inline" d="M156.495,82.687l8.187-1.413c0.748-0.129,1.386-0.617,1.705-1.306c1.807-3.9,2.376-8.207,1.644-12.454
					c-1.98-11.473-12.924-19.196-24.396-17.217c-11.472,1.979-19.196,12.923-17.218,24.396c0.09,0.521,0.356,0.996,0.753,1.345
					c0.467,0.409,2.573,0.847,6.838,0.435c3.426-0.331,7.951-1.285,13.758,0.513C151.304,78.082,156.495,82.687,156.495,82.687z"/>
			</g>
		</g>
		<g>
			<path d="M216.921,97.235c-14.975,0-82.467,0.07-96.907,0.07c-2.735,0.35-4.587,2.363-4.62,5.124
				c-0.045,3.897-0.009,30.884-0.026,40.479c-0.002,1.42,0.262,2.719,1.196,3.828c0.893,1.059,2.008,1.713,3.398,1.877
				c12.959,1.534,69.9,8.27,83.788,9.955c-0.084,0.438-0.56,3.098-0.772,3.926c-0.324,1.26-0.19,2.455,0.327,3.633
				c0.426,0.969,0.828,1.947,1.309,3.08c-20.529,0-69.923,0.146-74.767,0.146c-2.59,0.485-4.34,2.772-4.16,5.369
				c0.178,2.556,2.299,4.618,4.897,4.716c1.11,0.042,2.224,0.008,3.382,0.104c-3.454,0.99-6.029,3.006-7.508,6.279
				c-0.973,2.15-1.046,4.401-0.445,6.66c0.977,3.672,4.916,7.876,10.554,7.535c4.416-0.268,8.634-3.911,9.426-8.307
				c0.503-2.793,0.003-5.371-1.641-7.692c-1.617-2.284-3.81-3.754-6.519-4.509c22.681,0,45.362,0,68.042,0
				c-2.828,0.849-5.121,2.434-6.72,4.938c-1.618,2.535-1.93,5.288-1.134,8.145c1.294,4.64,5.803,7.705,10.762,7.402
				c4.342-0.267,8.459-4.041,9.199-8.398c0.479-2.805-0.062-5.37-1.73-7.672c-1.612-2.227-3.764-3.69-6.447-4.476
				c1.091,0,2.184,0.029,3.273-0.006c2.625-0.085,4.649-1.858,4.979-4.467c0.093-0.731-0.002-1.563-0.267-2.251
				c-0.642-1.676-3.461-7.348-4.136-8.54c-0.312-0.554-0.375-1.099-0.239-1.722c2.676-12.379,13.969-64.738,14.099-65.261
				c4.022,0,11.149-0.017,16.032,0.008c1.746,0.009,3.17-0.594,4.279-1.942c2.34-2.845,0.913-7.202-2.672-8.087
				c-0.656-0.162-1.355-0.215-2.033-0.217c-6.384-0.016-12.767-0.014-19.147-0.007c-3.017,0.002-4.562,0.987-5.544,3.812
				c-0.559,1.605-0.819,3.313-1.207,4.978C217.119,96.2,217.039,96.661,216.921,97.235z"/>
			<circle fill="#A2D5AB" cx="135.726" cy="189.95" r="5.333"/>
			<circle fill="#A2D5AB" cx="207.953" cy="189.95" r="5.333"/>
		</g>
		<path fill="#A2D5AB" d="M141.14,89.685c0.221-1.242,4.975-1.928,9.174-3.855c6.21-2.852,16.792-6.683,19.063-6.126
			c0.653,0.161,1.017,0.707,1.374,0.526c0.46-0.232,3.643,3,3.241,3.131c-0.803,0.26-1.877,0.102-2.491,0.154
			c-2.131,0.182-1.463,1.458-4.695,1.672c-2.318,0.153-8.525,4.626-12.123,5.569c-2.035,0.533-10.79,2.34-11.396,2.112
			C142.575,92.601,140.937,90.824,141.14,89.685z"/>
		<path fill="#A2D5AB" d="M170.751,80.23c0.46-0.232,1.339,0.416,2.952-0.44c1.652-0.877,14.222-8.905,26.474-5.095
			s11.566,4.838,11.566,4.838s-5.74,2.741-6.341,5.397c-0.601,2.656-1.37,1.435-1.37,1.435s-18.566-8.348-29.8-3.47
			c0,0,0.16,0.335-0.241,0.466c-0.803,0.26-1.877,0.102-2.491,0.154C169.37,83.698,170.394,80.411,170.751,80.23z"/>
		<path fill="#A2D5AB" d="M170.125,83.092c0.422,0.154,1.113-0.496,2.597,0.08c1.519,0.59,13.201,6.249,23.404,1.706
			c10.203-4.542,9.506-5.361,9.506-5.361s-5.242-1.785-6.031-4.02s-1.331-1.101-1.331-1.101s-14.972,9.42-27.389,5.833
			C170.177,80.025,169.797,82.972,170.125,83.092z"/>
		<g>
			<g>
				<path fill="#5B5151" d="M165.563,86.365c0,0,1.811,2.261,2.921,3.441c1.506,1.603,3.288,2.8,3.505,3.274
					c0.234,0.514,0.07,1.1-0.632,1.091c-1.095-0.013-3.363-1.137-4.852-2.698c-1.837-1.926-3.181-3.92-3.181-3.92L165.563,86.365z"
					/>
				<path fill="#5B5151" d="M167.707,87.907c2.262-1.647-2.401-4.948-2.177-9.174c1.809-3.9,0.725-12.386-1.659-16.786
					c-3.341-6.169-10.538-11.739-21.27-11.631c-10.205,0.104-15.12,6.373-16.45,10.879c0,0.771,0.053,1.515,0.449,1.864
					c0.467,0.409,13.503-1.178,16.602,2.85c2.305,2.997,5.283,7.358,5.323,11.153C148.642,88.164,163.36,91.074,167.707,87.907z"/>
			</g>
			<g>
				<path fill="#A2D5AB" d="M143.333,65.867c0,0.104,20.186,1.857,24.541,1.844c0.497-0.001,0.342,5.22-0.077,5.22
					c-7.34,0-24.464-0.509-24.464-0.509V65.867z"/>
				<path fill="#A2D5AB" d="M124.204,66.86c0.727-2.27,3.873-4.194,7.255-5.094c2.55-0.679,7.78-0.831,10.062,1.215
					c1.753,1.572,3.306,3.698,2.833,7.711c-0.473,4.013-3.016,4.942-5.888,5.826c-4.649,1.433-8.267,0.562-10.452-0.82
					C125.81,74.304,122.905,70.913,124.204,66.86z"/>
			</g>
			<path fill="#62898E" d="M127.197,67.534c0.501-1.564,2.669-2.89,4.999-3.509c1.756-0.468,5.36-0.573,6.933,0.836
				c1.208,1.083,2.276,2.548,1.951,5.313c-0.325,2.765-2.077,3.404-4.056,4.014c-3.204,0.987-5.695,0.387-7.201-0.565
				C128.304,72.661,126.303,70.325,127.197,67.534z"/>
			<g>
				<g>
					<defs>
						<path id="SVGID_1_" d="M127.197,67.534c0.501-1.564,2.669-2.89,4.999-3.509c1.756-0.468,5.36-0.573,6.933,0.836
							c1.208,1.083,2.276,2.548,1.951,5.313c-0.325,2.765-2.077,3.404-4.056,4.014c-3.204,0.987-5.695,0.387-7.201-0.565
							C128.304,72.661,126.303,70.325,127.197,67.534z"/>
					</defs>
					<clipPath id="SVGID_2_">
						<use xlink:href="#SVGID_1_"  overflow="visible"/>
					</clipPath>
					<g clip-path="url(#SVGID_2_)">
						<path fill="#7C9FA0" d="M127.8,72.199l10.561-8.277c0,0-0.4-0.096-0.75-0.144c-0.175-0.024-0.496-0.049-0.496-0.049
							l-10.357,6.414c0,0,0.104,0.405,0.414,1.02C127.427,71.671,127.8,72.199,127.8,72.199z"/>
						<path fill="#7C9FA0" d="M127.978,72.703l10.489-8.46c0,0,0.219,0.069,0.284,0.095c0.07,0.028,0.255,0.121,0.255,0.121
							l-10.455,8.863l-0.295-0.296L127.978,72.703z"/>
						<path fill="#7C9FA0" d="M132.093,74.958l8.667-8.292c0,0,0.159,0.302,0.204,0.407c0.051,0.117,0.176,0.479,0.176,0.479
							l-7.32,7.738c0,0-0.466-0.031-0.855-0.105C132.487,75.092,132.093,74.958,132.093,74.958z"/>
					</g>
				</g>
			</g>
			<g>
				<circle cx="169.893" cy="92.724" r="0.145"/>
				<circle cx="170.896" cy="93.235" r="0.145"/>
			</g>
		</g>
	</g>
	
		<animateTransform  attributeType="XML" repeatCount="indefinite" type="translate" fill="remove" calcMode="linear" restart="always" additive="replace" dur=".5s" accumulate="none" attributeName="transform" values="0,6;0, -6;0,6">
		</animateTransform>
</g>
<g id="Layer_2">
	<rect x="38.333" y="225.333" width="279" height="9"/>
	<path d="M299.908,217.608c0,0,8.428-1.015,10.868,0.181c1.552,0.756,5.097,5.186,5.808,6.295c1.08,1.687,1.166,5.25,1.166,5.25
		h-25.666c0,0,0.444-4.779,1.186-5.967C294.388,221.569,299.908,217.608,299.908,217.608z	">
<animateTransform  attributeType="XML" repeatCount="indefinite" type="translate" fill="remove" calcMode="linear" restart="always" additive="replace" dur=".5s" accumulate="none" attributeName="transform" values="-250; 0; 0; 0">
			</animateTransform>
	</path>
</g>
</svg>
