<?xml version="1.0" encoding="utf-8"?>
<!-- Generator: Adobe Illustrator 16.0.0, SVG Export Plug-In . SVG Version: 6.00 Build 0)  -->
<!DOCTYPE svg PUBLIC "-//W3C//DTD SVG 1.1//EN" "http://www.w3.org/Graphics/SVG/1.1/DTD/svg11.dtd">
<svg version="1.1" id="Layer_1" xmlns="http://www.w3.org/2000/svg" xmlns:xlink="http://www.w3.org/1999/xlink" x="0px" y="0px"
	 width="1024px" height="768px" viewBox="0 0 1024 768" enable-background="new 0 0 1024 768" xml:space="preserve">
<g>
	<!-- <div class="cart"> -->
	<g>
		<path fill="#FFFFFF" d="M860.858,386.151c-3.644,4.02-4.095,10.703-3.221,16.171c0.667,4.175-1.035,6.465-4.317,4.889
			c-7.002-3.364-22.129-13.264-22.129-13.264l-2.611,7.907l16.82,18.417l-9.746,25.229l17,39.631c0,0,22.21-19.33,24.984-40.076
			c1.734-12.977-0.76-21.408-0.76-21.408l13.922-6.229c0,0,15.043-14.038,4.682-30.493
			C885.121,370.471,867.374,378.962,860.858,386.151z"/>
		<g display="none">
			<path display="inline" fill="#FFFFFF" d="M873.498,392.29l-8.238,12.138l-7.974-0.521c0,0-0.023,0.369-0.107,0.912
				c-0.087,0.563-0.234,0.989-0.234,0.989l8.219,0.89l7.438,10.25l9.128-14.12L873.498,392.29z M873.963,395.237
				c1.03,1.391,6.211,7.993,6.211,7.993l-7.074,11.252l-6.188-8.865L873.963,395.237z"/>
			<path display="inline" d="M871.358,416.432l4.98,7.723c0.456,0.707,1.228,1.144,2.068,1.17c4.752,0.152,9.382-1.133,13.389-3.718
				c10.823-6.979,13.948-21.464,6.968-32.286c-6.98-10.824-21.465-13.949-32.287-6.969c-0.492,0.316-0.86,0.793-1.043,1.349
				c-0.215,0.651,0.252,2.985,2.517,7.149c1.819,3.345,4.749,7.538,5.433,14.227C873.799,409.154,871.358,416.432,871.358,416.432z"
				/>
		</g>
	</g>
	<g>
		<path fill-rule="evenodd" clip-rule="evenodd" fill="#FFFFFF" d="M882.703,484.244c-6.482-15.244-35.768-83.922-42.018-98.623
			c-1.539-2.633-4.391-3.646-7.215-2.484c-3.988,1.641-31.443,13.359-41.219,17.494c-1.447,0.613-2.656,1.443-3.38,2.875
			c-0.69,1.367-0.875,2.786-0.44,4.271c4.049,13.857,21.836,74.74,26.133,89.605c-0.482,0.105-3.396,0.771-4.33,0.912
			c-1.424,0.215-2.582,0.869-3.558,1.904c-0.8,0.854-1.623,1.688-2.569,2.668c-8.887-20.9-30.414-71.119-32.511-76.051
			c-1.615-2.426-4.702-3.219-7.266-1.912c-2.526,1.288-3.707,4.34-2.681,7.028c0.438,1.147,0.955,2.265,1.359,3.486
			c-2.504-3.088-5.67-4.837-9.643-4.925c-2.61-0.06-4.935,0.841-6.974,2.431c-3.314,2.583-5.89,8.413-3.103,14.005
			c2.183,4.38,7.718,7.096,12.535,6c3.061-0.697,5.47-2.321,7.121-4.999c1.625-2.636,2.173-5.505,1.768-8.589
			c9.818,23.089,19.636,46.179,29.453,69.269c-2.089-2.513-4.694-4.16-7.938-4.704c-3.28-0.549-6.219,0.325-8.78,2.373
			c-4.162,3.324-5.333,9.238-2.876,14.156c2.148,4.307,7.773,6.864,12.53,5.732c3.061-0.729,5.438-2.391,7.06-5.084
			c1.569-2.605,2.129-5.428,1.766-8.501c0.473,1.111,0.915,2.235,1.423,3.329c1.223,2.637,3.906,3.93,6.704,3.139
			c0.786-0.224,1.59-0.68,2.177-1.246c1.426-1.378,5.979-6.703,6.901-7.905c0.43-0.558,0.955-0.857,1.649-0.99
			c13.761-2.633,71.95-13.801,72.538-13.896c1.741,4.094,4.844,11.344,6.932,16.324c0.748,1.781,1.977,2.971,3.829,3.516
			c3.909,1.151,7.729-2.186,7.077-6.219c-0.119-0.738-0.368-1.473-0.66-2.166c-2.747-6.504-5.512-13-8.28-19.494
			c-1.308-3.07-2.979-4.217-6.28-3.993c-1.875,0.126-3.729,0.601-5.59,0.925C883.842,483.996,883.338,484.113,882.703,484.244z"/>
		<circle fill-rule="evenodd" clip-rule="evenodd" fill="#39AEA9" cx="753.175" cy="441.717" r="5.9"/>
		<circle fill-rule="evenodd" clip-rule="evenodd" fill="#39AEA9" cx="784.438" cy="515.244" r="5.9"/>
	</g>
	<path fill-rule="evenodd" clip-rule="evenodd" fill="#39AEA9" d="M857.588,403.829c1.359-0.313,4.115,4.23,7.895,7.669
		c5.592,5.089,14.072,14.204,14.488,16.756c0.119,0.735-0.28,1.342,0.06,1.627c0.436,0.368-1.479,5.008-1.786,4.654
		c-0.611-0.703-0.916-1.865-1.234-2.469c-1.108-2.09-2.117-0.859-3.734-4.056c-1.16-2.294-8.399-6.676-10.916-9.931
		c-1.424-1.84-7.054-9.971-7.084-10.686C855.24,406.551,856.34,404.116,857.588,403.829z"/>
	<path display="none" fill-rule="evenodd" clip-rule="evenodd" fill="#A2D5AB" d="M880.03,429.881
		c0.436,0.368,0.155,1.543,1.726,2.814c1.608,1.303,15.222,10.624,16.646,24.746c1.425,14.121,0.081,13.869,0.081,13.869
		s-5.275-4.658-8.239-4.119c-2.963,0.539-2.054-0.773-2.054-0.773s0.463-22.514-9.366-31.839c0,0-0.272,0.31-0.579-0.044
		c-0.611-0.703-0.916-1.865-1.234-2.469C875.901,429.977,879.69,429.596,880.03,429.881z"/>
	<path display="none" fill-rule="evenodd" clip-rule="evenodd" fill="#A2D5AB" d="M876.845,430.483
		c0.026,0.495,0.987,0.919,1.042,2.677c0.057,1.801-0.646,16.145,8.395,24.564c9.039,8.421,9.571,7.357,9.571,7.357
		s-0.451-6.109,1.481-7.879c1.935-1.771,0.545-1.833,0.545-1.833s-16.068-11.163-17.793-25.356
		C879.989,429.208,876.825,430.098,876.845,430.483z"/>
	<g>
		<g>
			<path fill="#5B5151" d="M871.539,427.256c0,0-1.519,2.821-2.239,4.462c-0.98,2.229-1.427,4.562-1.815,4.987
				c-0.422,0.461-1.09,0.545-1.385-0.172c-0.461-1.121-0.299-3.916,0.646-6.107c1.166-2.703,2.613-4.934,2.613-4.934
				L871.539,427.256z"/>
			<path fill="#5B5151" d="M870.896,430.105c2.655,1.589,3.998-4.586,8.398-6.187c4.752,0.151,12.921-4.624,16.369-8.954
				c4.833-6.072,7.389-15.811,2.634-26.688c-4.522-10.345-13.032-12.634-18.196-12.037c-0.785,0.333-1.52,0.709-1.703,1.264
				c-0.214,0.652,7.044,13.236,4.285,18.134c-2.053,3.644-5.204,8.563-9.049,10.247
				C862.383,410.809,865.791,427.052,870.896,430.105z"/>
		</g>
		<g>
			<path fill="#39AEA9" d="M882.4,394.85c0.284,0.966,7.039,21.805,8.938,26.232c0.216,0.505-5.263,2.383-5.445,1.954
				c-3.176-7.471-10.165-25.35-10.165-25.35L882.4,394.85z"/>
			<path fill="#39AEA9" d="M873.492,376.709c2.625-0.242,5.946,2.129,8.326,5.182c1.795,2.302,4.214,7.561,3.119,10.77
				c-0.842,2.464-2.334,4.965-6.624,6.221c-4.29,1.257-6.335-0.93-8.479-3.472c-3.472-4.113-4.149-8.172-3.689-10.995
				C866.61,381.565,868.805,377.142,873.492,376.709z"/>
		</g>
		<path fill="#62898E" d="M874.103,380.047c1.809-0.166,4.097,1.467,5.736,3.57c1.236,1.586,2.903,5.21,2.148,7.42
			c-0.579,1.697-1.607,3.421-4.563,4.287c-2.955,0.865-4.365-0.643-5.842-2.393c-2.392-2.834-2.857-5.631-2.541-7.576
			C869.361,383.395,870.873,380.345,874.103,380.047z"/>
		<g>
			<defs>
				<path id="SVGID_1_" d="M874.103,380.047c1.809-0.166,4.097,1.467,5.736,3.57c1.236,1.586,2.903,5.21,2.148,7.42
					c-0.579,1.697-1.607,3.421-4.563,4.287c-2.955,0.865-4.365-0.643-5.842-2.393c-2.392-2.834-2.857-5.631-2.541-7.576
					C869.361,383.395,870.873,380.345,874.103,380.047z"/>
			</defs>
			<clipPath id="SVGID_2_">
				<use xlink:href="#SVGID_1_"  overflow="visible"/>
			</clipPath>
			<g clip-path="url(#SVGID_2_)">
				<path fill="#7C9FA0" d="M869.613,382.681l12.998,7.169c0,0-0.076-0.451-0.178-0.826c-0.051-0.189-0.164-0.527-0.164-0.527
					l-11.014-7.768c0,0-0.367,0.281-0.859,0.863C869.99,382.072,869.613,382.681,869.613,382.681z"/>
				<path fill="#7C9FA0" d="M869.179,383.079l13.153,7.017c0,0,0.024,0.253,0.025,0.33c0.002,0.083-0.013,0.312-0.013,0.312
					l-13.548-6.809l0.174-0.427L869.179,383.079z"/>
				<path fill="#7C9FA0" d="M868.663,388.244l12.192,5.235c0,0-0.238,0.292-0.325,0.384c-0.097,0.102-0.411,0.386-0.411,0.386
					l-11.046-4.103c0,0-0.17-0.488-0.263-0.916C868.698,388.703,868.663,388.244,868.663,388.244z"/>
			</g>
		</g>
		<g>
			<circle cx="866.939" cy="434.415" r="0.16"/>
			<circle cx="866.854" cy="435.658" r="0.161"/>
		</g>
	</g>

	<animateTransform
	     attributeName="transform"
	     attributeType="XML"
	     type="translate"
	     dur=".5s"
	     values="0,6;0, -6;0,6"
	     repeatCount="indefinite" />

<!-- </div> -->
</g>
<path fill-rule="evenodd" clip-rule="evenodd" fill="#FFFFFF" d="M882,630C740,630,613.971,60.656,490.958,60.656S246,630,118,630
	v77h764V630z"/>
</svg>
